<svg xmlns="http://www.w3.org/2000/svg" viewBox="0 15.449999809265137 279.7900085449219 110.205078125" data-asc="1.17626953125" width="279.7900085449219" height="110.205078125"><defs/><g fill="#ffffff"><g transform="translate(0, 0)"><path d="M0 58.81L0 15.84L8.84 15.84L12.79 36.43L12.79 15.84L21.09 15.84L21.09 58.81L12.70 58.81L8.40 37.33L8.40 58.81L0 58.81ZM35.16 59.20Q30.00 59.20 27.28 56.09Q24.56 52.98 24.56 47.09L24.56 26.68Q24.56 21.17 27.26 18.31Q29.96 15.45 35.16 15.45Q40.36 15.45 43.05 18.31Q45.75 21.17 45.75 26.68L45.75 47.09Q45.75 52.98 43.03 56.09Q40.31 59.20 35.16 59.20M35.23 51.29Q37.18 51.29 37.18 47.51L37.18 26.54Q37.18 23.36 35.28 23.36Q33.13 23.36 33.13 26.61L33.13 47.56Q33.13 49.56 33.62 50.43Q34.11 51.29 35.23 51.29ZM49.22 58.81L49.22 15.84L60.86 15.84Q65.55 15.84 67.69 18.13Q69.82 20.41 69.82 25.66L69.82 27.54Q69.82 30.57 68.74 32.45Q67.65 34.33 65.43 34.91Q68.33 35.64 69.32 38.34Q70.31 41.04 70.31 44.92Q70.31 49.10 69.53 52.22Q68.75 55.35 66.70 57.08Q64.65 58.81 60.86 58.81L49.22 58.81M57.62 32.03L59.38 32.03Q60.57 32.03 60.91 31.10Q61.25 30.18 61.25 28.88L61.25 24.56Q61.25 22.49 59.42 22.49L57.62 22.49L57.62 32.03M58.47 51.25Q61.82 51.25 61.82 48.07L61.82 42.70Q61.82 40.87 61.27 39.81Q60.72 38.75 59.20 38.75L57.62 38.75L57.62 51.20Q58.15 51.25 58.47 51.25ZM83.40 59.20Q78.25 59.20 75.52 56.09Q72.80 52.98 72.80 47.09L72.80 26.68Q72.80 21.17 75.50 18.31Q78.20 15.45 83.40 15.45Q88.60 15.45 91.30 18.31Q93.99 21.17 93.99 26.68L93.99 47.09Q93.99 52.98 91.27 56.09Q88.55 59.20 83.40 59.20M83.47 51.29Q85.42 51.29 85.42 47.51L85.42 26.54Q85.42 23.36 83.52 23.36Q81.37 23.36 81.37 26.61L81.37 47.56Q81.37 49.56 81.86 50.43Q82.35 51.29 83.47 51.29ZM97.46 58.81L97.46 15.84L109.28 15.84Q113.92 15.84 116.26 18.42Q118.60 21.00 118.60 25.95L118.60 46.07Q118.60 52.17 116.47 55.49Q114.33 58.81 108.98 58.81L97.46 58.81M106.10 51.22L107.59 51.22Q109.96 51.22 109.96 48.93L109.96 26.76Q109.96 24.61 109.39 23.99Q108.81 23.36 107.06 23.36L106.10 23.36L106.10 51.22ZM127.32 58.81L127.32 44.68L120.46 15.84L128.98 15.84L131.37 30.40L133.76 15.84L142.26 15.84L135.42 44.68L135.42 58.81L127.32 58.81ZM166.16 59.20Q161.50 59.20 158.65 56.30Q155.81 53.39 155.81 48.17L155.81 28.34Q155.81 22.09 158.29 18.77Q160.77 15.45 166.36 15.45Q169.41 15.45 171.79 16.58Q174.17 17.70 175.54 19.93Q176.90 22.17 176.90 25.56L176.90 32.98L168.36 32.98L168.36 26.64Q168.36 24.71 167.87 24.04Q167.38 23.36 166.36 23.36Q165.16 23.36 164.75 24.23Q164.33 25.10 164.33 26.54L164.33 48.05Q164.33 49.83 164.86 50.56Q165.38 51.29 166.36 51.29Q167.46 51.29 167.91 50.39Q168.36 49.49 168.36 48.05L168.36 40.31L177.00 40.31L177.00 48.44Q177.00 54.10 174.15 56.65Q171.29 59.20 166.16 59.20ZM178.69 58.81L182.84 15.84L197.41 15.84L201.49 58.81L193.36 58.81L192.75 51.88L187.57 51.88L187.04 58.81L178.69 58.81M188.18 45.02L192.09 45.02L190.21 23.17L189.82 23.17L188.18 45.02ZM204.13 58.81L204.13 15.84L217.31 15.84Q220.61 15.84 222.29 17.35Q223.97 18.85 224.55 21.55Q225.12 24.24 225.12 27.88Q225.12 31.40 224.23 33.50Q223.34 35.60 220.87 36.40Q222.90 36.82 223.72 38.42Q224.54 40.01 224.54 42.55L224.54 58.81L216.06 58.81L216.06 41.99Q216.06 40.11 215.30 39.66Q214.53 39.21 212.82 39.21L212.82 58.81L204.13 58.81M212.87 31.76L214.94 31.76Q216.72 31.76 216.72 27.88Q216.72 25.37 216.33 24.58Q215.94 23.80 214.87 23.80L212.87 23.80L212.87 31.76ZM227.95 58.81L227.95 15.84L245.14 15.84L245.14 24.15L236.69 24.15L236.69 32.52L244.80 32.52L244.80 40.60L236.69 40.60L236.69 50.44L245.70 50.44L245.70 58.81L227.95 58.81ZM258.74 59.20Q252.86 59.20 250.26 56.27Q247.66 53.34 247.66 46.95L247.66 42.75L256.15 42.75L256.15 48.12Q256.15 49.61 256.60 50.45Q257.06 51.29 258.18 51.29Q259.35 51.29 259.80 50.61Q260.25 49.93 260.25 48.36Q260.25 46.39 259.86 45.06Q259.47 43.73 258.51 42.52Q257.54 41.31 255.83 39.70L251.98 36.04Q247.66 31.96 247.66 26.71Q247.66 21.22 250.21 18.33Q252.76 15.45 257.59 15.45Q263.50 15.45 265.98 18.60Q268.46 21.75 268.46 28.17L259.72 28.17L259.72 25.22Q259.72 24.34 259.22 23.85Q258.72 23.36 257.86 23.36Q256.84 23.36 256.36 23.94Q255.88 24.51 255.88 25.42Q255.88 26.32 256.37 27.37Q256.86 28.42 258.30 29.79L263.26 34.55Q264.75 35.96 265.99 37.54Q267.24 39.11 267.99 41.20Q268.75 43.29 268.75 46.29Q268.75 52.34 266.52 55.77Q264.28 59.20 258.74 59.20ZM271.04 58.79L271.04 51.51L279.79 51.51L279.79 58.79L271.04 58.79Z"/></g><g transform="translate(0, 66.455078125)"><path d="M4.61 58.81L0 15.84L8.40 15.84L10.77 42.97L13.18 15.84L21.19 15.84L23.49 42.97L25.78 15.84L34.28 15.84L29.59 58.81L19.29 58.81L17.14 38.13L15.09 58.81L4.61 58.81ZM47.09 59.20Q41.94 59.20 39.22 56.09Q36.50 52.98 36.50 47.09L36.50 26.68Q36.50 21.17 39.20 18.31Q41.89 15.45 47.09 15.45Q52.29 15.45 54.99 18.31Q57.69 21.17 57.69 26.68L57.69 47.09Q57.69 52.98 54.97 56.09Q52.25 59.20 47.09 59.20M47.17 51.29Q49.12 51.29 49.12 47.51L49.12 26.54Q49.12 23.36 47.22 23.36Q45.07 23.36 45.07 26.61L45.07 47.56Q45.07 49.56 45.56 50.43Q46.04 51.29 47.17 51.29ZM61.16 58.81L61.16 15.84L74.34 15.84Q77.64 15.84 79.32 17.35Q81.01 18.85 81.58 21.55Q82.15 24.24 82.15 27.88Q82.15 31.40 81.26 33.50Q80.37 35.60 77.91 36.40Q79.93 36.82 80.75 38.42Q81.57 40.01 81.57 42.55L81.57 58.81L73.10 58.81L73.10 41.99Q73.10 40.11 72.33 39.66Q71.56 39.21 69.85 39.21L69.85 58.81L61.16 58.81M69.90 31.76L71.97 31.76Q73.75 31.76 73.75 27.88Q73.75 25.37 73.36 24.58Q72.97 23.80 71.90 23.80L69.90 23.80L69.90 31.76ZM84.99 58.81L84.99 15.84L93.48 15.84L93.48 33.06L97.49 15.84L106.13 15.84L101.32 35.52L107.13 58.81L98.22 58.81L93.53 38.01L93.53 58.81L84.99 58.81ZM120.31 58.81L120.31 15.84L128.86 15.84L128.86 31.20L132.91 31.20L132.91 15.84L141.46 15.84L141.46 58.81L132.91 58.81L132.91 39.33L128.86 39.33L128.86 58.81L120.31 58.81ZM144.09 58.81L148.24 15.84L162.82 15.84L166.89 58.81L158.76 58.81L158.15 51.88L152.98 51.88L152.44 58.81L144.09 58.81M153.59 45.02L157.50 45.02L155.62 23.17L155.22 23.17L153.59 45.02ZM169.53 58.81L169.53 15.84L182.71 15.84Q186.01 15.84 187.70 17.35Q189.38 18.85 189.95 21.55Q190.53 24.24 190.53 27.88Q190.53 31.40 189.64 33.50Q188.75 35.60 186.28 36.40Q188.31 36.82 189.12 38.42Q189.94 40.01 189.94 42.55L189.94 58.81L181.47 58.81L181.47 41.99Q181.47 40.11 180.70 39.66Q179.93 39.21 178.22 39.21L178.22 58.81L169.53 58.81M178.27 31.76L180.35 31.76Q182.13 31.76 182.13 27.88Q182.13 25.37 181.74 24.58Q181.35 23.80 180.27 23.80L178.27 23.80L178.27 31.76ZM193.36 58.81L193.36 15.84L205.18 15.84Q209.81 15.84 212.16 18.42Q214.50 21.00 214.50 25.95L214.50 46.07Q214.50 52.17 212.37 55.49Q210.23 58.81 204.88 58.81L193.36 58.81M202.00 51.22L203.49 51.22Q205.86 51.22 205.86 48.93L205.86 26.76Q205.86 24.61 205.29 23.99Q204.71 23.36 202.95 23.36L202.00 23.36L202.00 51.22ZM218.02 58.81L218.02 15.84L235.21 15.84L235.21 24.15L226.76 24.15L226.76 32.52L234.86 32.52L234.86 40.60L226.76 40.60L226.76 50.44L235.77 50.44L235.77 58.81L218.02 58.81ZM238.60 58.81L238.60 15.84L251.78 15.84Q255.08 15.84 256.76 17.35Q258.45 18.85 259.02 21.55Q259.59 24.24 259.59 27.88Q259.59 31.40 258.70 33.50Q257.81 35.60 255.35 36.40Q257.37 36.82 258.19 38.42Q259.01 40.01 259.01 42.55L259.01 58.81L250.54 58.81L250.54 41.99Q250.54 40.11 249.77 39.66Q249.00 39.21 247.29 39.21L247.29 58.81L238.60 58.81M247.34 31.76L249.41 31.76Q251.20 31.76 251.20 27.88Q251.20 25.37 250.81 24.58Q250.42 23.80 249.34 23.80L247.34 23.80L247.34 31.76ZM261.87 58.79L261.87 51.51L270.61 51.51L270.61 58.79L261.87 58.79Z"/></g></g></svg>